<svg xmlns="http://www.w3.org/2000/svg" viewBox="130 22 500 500"><path fill="#303030" d="M130 22h500v501H130z"/><path fill="none" d="M268 111h270v278H268V111z"/><path fill="#eee" d="M491 88H269c-18 0-32 15-32 33v229c0 18 14 33 32 33h222c18 0 32-15 32-33V121c0-18-14-33-32-33zm0 262H269v-75l16 17 63-66 64 66 63-66 16 17v107zm0-154l-16-16-63 65-64-65-63 65-16-16V121h222v75z"/><path d="M175 437h18v4h-12v7h9v5h-9v12h-6v-28zm20 17l2-6c0-2 2-3 3-4l5-2a9 9 0 018 4v-3h5v22h-5v-4l-3 3-5 1-5-1-3-4-2-6zm18 0l-1-4a6 6 0 00-5-3 6 6 0 00-5 3l-1 4 1 3 2 2 3 1a6 6 0 005-3l1-3zm14-14l-3-1-1-2 1-3 3-1 2 1 1 3-1 2-2 1zm-3 3h5v22h-5v-22zm11-8h5v30h-5v-30zm32 18l-1 2h-16l2 4 4 1c2 0 3 0 4-2h6l-4 5-6 2-6-1-4-4-1-6 1-6 4-4 6-2 5 2c2 0 3 2 4 3l2 6zm-17-1h11l-2-4-4-1-3 1-2 4zm19 2l2-6a10 10 0 0112-5l4 3v-11h5v30h-5v-4l-3 3-5 1-5-1-3-4-2-6zm18 0l-1-4a6 6 0 00-5-3 6 6 0 00-5 3l-1 4 1 3 2 2 3 1a6 6 0 005-3l1-3zm32-7h-5v12l2 1h3v5h-4c-4 0-7-3-7-7v-11h-2v-4h2v-6h6v6h5v4zm14 18l-6-1-4-4-2-6 2-6 4-4 6-2 6 2 4 4 1 6-1 6-4 4-6 1zm0-5l3-1 2-2v-3l-1-5-4-2-4 2-2 5 2 4c1 2 2 2 4 2zm25-25h5v30h-5v-30zm21 30l-6-1-4-4-1-6 1-6 4-4 6-2 6 2 4 4 1 6-1 6-4 4-6 1zm0-5l3-1 2-2 1-3-2-5-4-2-4 2-2 5 2 4c1 2 2 2 4 2zm14-6l1-6 4-4 5-2a9 9 0 017 4v-3h6v22h-6v-4c0 2-1 2-2 3l-5 1-5-1-4-4-1-6zm17 0v-4a6 6 0 00-5-3 6 6 0 00-5 3l-1 4 1 3 2 2 3 1a6 6 0 005-3v-3zm10 0l2-6a10 10 0 0112-5l4 3v-11h5v30h-5v-4l-3 3-5 1-5-1-3-4-2-6zm18 0l-1-4a6 6 0 00-5-3 6 6 0 00-5 3l-1 4 1 3 2 2 3 1a6 6 0 005-3l1-3zm23-14l-2-1-1-2 1-3 2-1 3 1 1 3-1 2-3 1zm-3 3h6v22h-6v-22zm39-1c3 0 5 1 6 3 2 1 3 4 3 7v13h-6v-13l-1-4-4-1-3 1-2 4v13h-5v-13l-1-4-4-1-4 1-1 4v13h-6v-22h6v2l3-2 3-1 5 1 3 3 3-3 5-1zm13 12l1-6 4-4 5-2a9 9 0 017 4v-3h6v22h-6v-4c0 2-1 2-3 3l-4 1-5-1-4-4-1-6zm17 0l-1-4a6 6 0 00-5-3 6 6 0 00-5 3v7l3 2 2 1a6 6 0 005-3l1-3zm20-12l4 1 3 3v-3h6v22l-1 5-4 4-6 2c-3 0-6-1-8-3-2-1-3-3-3-6h5l2 3 4 1 4-2 1-4v-4l-3 3-4 1-5-1-4-4-1-6 1-6 4-4 5-2zm7 12v-4a6 6 0 00-5-3 6 6 0 00-5 3l-1 4 1 3 2 2 3 1a6 6 0 005-3v-3zm32-1v2h-16l1 4 4 1c2 0 4 0 5-2h6l-4 5-7 2-6-1-3-4-2-6 1-6 4-4 6-2 6 2c2 0 3 2 4 3l1 6zm-16-1h10l-1-4-4-1-3 1-2 4z" style="white-space:pre" fill="#ddd"/></svg>